<svg width="24" height="24" viewBox="0 0 24 24" fill="none" xmlns="http://www.w3.org/2000/svg">
<path fill-rule="evenodd" clip-rule="evenodd" d="M11.3462 6.56481C11.4594 6.66462 11.6104 6.7103 11.76 6.68997C12.7611 6.50537 13.6566 5.95234 14.27 5.13997C14.8664 4.38728 15.2156 3.46873 15.27 2.50997C15.2745 2.35109 15.2046 2.19921 15.0811 2.09921C14.9576 1.9992 14.7945 1.96251 14.64 1.99997C13.6751 2.25193 12.8121 2.79697 12.17 3.55997C11.5599 4.29704 11.2086 5.21395 11.17 6.16997C11.1686 6.32091 11.2329 6.465 11.3462 6.56481ZM18.7025 9.22549C18.1109 9.78066 17.18 10.6542 17.18 12.51C17.1661 14.1669 18.076 15.6938 19.54 16.47C19.7211 16.5518 19.8382 16.7313 19.84 16.93C19.84 17 17.74 22 15.22 22C14.6683 22 14.3006 21.8261 13.8979 21.6357C13.41 21.405 12.8705 21.15 11.89 21.15C10.9236 21.15 10.3828 21.3977 9.88507 21.6257C9.46094 21.82 9.06815 22 8.47001 22C6.15001 22 3.00001 17.14 3.00001 12.75C2.96015 11.51 3.26846 10.2837 3.89001 9.20997C4.76661 7.7243 6.32762 6.77494 8.05001 6.67997C8.86168 6.67997 9.52612 6.91887 10.1546 7.14484C10.7186 7.34761 11.2536 7.53997 11.84 7.53997C12.3999 7.53997 12.8517 7.36465 13.3473 7.17233C13.9495 6.9387 14.6163 6.67997 15.62 6.67997C17.45 6.67997 19.18 7.99997 19.18 8.58997C19.18 8.77744 18.9781 8.96693 18.7025 9.22549Z" fill="black"/>
</svg>
