<svg width="32" height="32" viewBox="0 0 32 32" fill="none" xmlns="http://www.w3.org/2000/svg">
<path d="M22.1888 18.7754C20.7285 18.7754 20.2466 19.8861 20.1001 20.4018H23.9987C23.9622 20.1155 23.8477 19.6122 23.4834 19.2452C23.173 18.9339 22.7388 18.7754 22.1888 18.7754V18.7754Z" fill="#231F20"/>
<path d="M12.167 20.8496C12.1657 20.8496 12.1657 20.8496 12.1657 20.8496H8.47412V23.9969H11.9652C12.5879 23.9813 13.3592 23.7809 13.3592 22.4729C13.3592 20.895 12.289 20.8496 12.167 20.8496Z" fill="#231F20"/>
<path d="M28.8113 0H2.98075C1.57744 0 0.391021 0.927671 0 2.20272V29.8623C0.330007 30.9396 1.22784 31.7684 2.34479 32H29.4468C30.5326 31.7751 31.409 30.9841 31.7608 29.9505V2.11454C31.3427 0.885363 30.1816 0 28.8113 0V0ZM19.1173 13.5276C19.1173 13.4043 19.2179 13.3041 19.3408 13.3041H24.8922C25.0142 13.3041 25.1153 13.4043 25.1153 13.5276V15.1848C25.1153 15.3081 25.0137 15.4079 24.8922 15.4079H19.3408C19.2179 15.4079 19.1173 15.3081 19.1173 15.1848V13.5276ZM16.7595 22.7193C16.7595 24.8347 15.6404 25.855 14.6998 26.3355C13.675 26.8606 12.6129 26.9016 12.3109 26.9016H5.26408C5.14205 26.9016 5.04051 26.8005 5.04051 26.6776V13.2257C5.04051 13.1023 5.14205 13.0017 5.26408 13.0017H12.2655C14.7506 13.0017 16.2946 14.4597 16.2946 16.8081C16.2946 18.2626 15.586 18.9605 14.9625 19.2927C15.3122 19.4161 15.6172 19.6129 15.8715 19.8846C16.8486 20.9178 16.7649 22.6458 16.7595 22.7193ZM27.1381 22.5166C27.1247 22.628 27.0294 22.7113 26.9167 22.7113H20.1772C20.2257 23.4501 20.5183 23.9832 21.047 24.2981C21.5146 24.5755 22.0316 24.6058 22.2303 24.6058C22.2717 24.6058 22.2975 24.604 22.3006 24.6031C23.0742 24.6031 23.6233 24.4326 23.9471 24.0959C24.2575 23.7725 24.2491 23.4069 24.2468 23.3913C24.2468 23.3299 24.2673 23.2706 24.311 23.2261C24.3524 23.1824 24.4103 23.1571 24.4722 23.1571H26.8384C26.9622 23.1571 27.0628 23.2573 27.0628 23.3811C27.0628 27.0022 23.1958 27.1857 22.4182 27.1857C22.294 27.1857 22.2231 27.1813 22.2231 27.1813C22.2231 27.1813 22.2223 27.1813 22.2209 27.1813C20.4751 27.1813 19.1092 26.6722 18.1722 25.6693C16.7039 24.0954 16.8379 21.8936 16.8446 21.801C16.8446 21.7613 16.8508 20.4564 17.5104 19.1324C18.1299 17.8974 19.4486 16.4242 22.2365 16.4242C23.834 16.4242 25.0779 16.915 25.9272 17.8823C27.4899 19.6641 27.1559 22.4008 27.1381 22.5166V22.5166Z" fill="#231F20"/>
<path d="M12.892 16.9487C12.892 15.7868 12.1951 15.7734 12.1661 15.7734H11.6606H8.47412V18.3271H11.922C12.4347 18.3271 12.892 18.222 12.892 16.9487V16.9487Z" fill="#231F20"/>
</svg>
