<svg width="32" height="25" viewBox="0 0 32 25" fill="none" xmlns="http://www.w3.org/2000/svg">
<path d="M30.9378 0H1.06223C0.47626 0 0 0.476676 0 1.06265V3.20042C0 3.29891 0.106805 3.41195 0.194078 3.45766L15.8973 12.4272C15.9381 12.4509 15.9838 12.4617 16.0295 12.4617C16.0761 12.4617 16.123 12.4497 16.1642 12.4251L31.3928 3.46639C31.4784 3.4186 31.7054 3.29226 31.7905 3.23408C31.8936 3.16384 32 3.10026 32 2.97434V1.06223C32 0.476676 31.5237 0 30.9378 0V0Z" fill="#231F20"/>
<path d="M31.8673 6.42385C31.7842 6.37565 31.6828 6.37772 31.5993 6.42552L22.9813 11.4961C22.9123 11.536 22.8645 11.6066 22.8529 11.6864C22.8425 11.7658 22.8674 11.8468 22.9211 11.9054L31.5403 21.1966C31.5914 21.2519 31.6612 21.2814 31.7344 21.2814C31.7672 21.2814 31.8004 21.2752 31.8316 21.2635C31.9334 21.2232 31.9999 21.1256 31.9999 21.0159V6.6545C31.9999 6.55892 31.9496 6.47123 31.8673 6.42385V6.42385Z" fill="#231F20"/>
<path d="M20.4981 13.1988C20.4133 13.107 20.277 13.0866 20.1693 13.1498L16.715 15.1824C16.3094 15.421 15.7899 15.423 15.3818 15.1911L12.3418 13.4544C12.2412 13.3975 12.1145 13.4112 12.0297 13.4902L0.485581 24.1981C0.424075 24.2555 0.393322 24.3382 0.402464 24.4217C0.411607 24.5052 0.46023 24.58 0.532958 24.622C0.71249 24.7276 0.885789 24.7778 1.062 24.7778H30.6321C30.738 24.7778 30.8336 24.7151 30.8752 24.6178C30.9176 24.5214 30.8985 24.4088 30.8262 24.3315L20.4981 13.1988Z" fill="#231F20"/>
<path d="M9.48945 12.2237C9.55179 12.1668 9.58296 12.0829 9.57382 11.9993C9.56467 11.9154 9.51481 11.841 9.44166 11.7986L0.396052 6.63205C0.315429 6.58551 0.21361 6.58634 0.131325 6.63371C0.0498701 6.68109 0 6.76878 0 6.86312V20.4195C0 20.5246 0.0623377 20.6202 0.158753 20.6622C0.192831 20.6776 0.228987 20.685 0.265558 20.685C0.330805 20.685 0.396052 20.6605 0.445922 20.614L9.48945 12.2237Z" fill="#231F20"/>
</svg>
