<svg width="32" height="32" viewBox="0 0 32 32" fill="none" xmlns="http://www.w3.org/2000/svg">
<path d="M30.2338 0H1.76622C0.790667 0 0 0.790667 0 1.76622V30.2342C0 31.2093 0.790667 32 1.76622 32H17.092V19.608H12.9218V14.7787H17.092V11.2169C17.092 7.08356 19.6164 4.83333 23.3036 4.83333C25.0698 4.83333 26.5876 4.96444 27.0302 5.02356V9.34311L24.4729 9.34445C22.4676 9.34445 22.0796 10.2973 22.0796 11.6956V14.7791H26.8618L26.2391 19.6084H22.0796V32H30.2342C31.2093 32 32 31.2093 32 30.2338V1.76622C32 0.790667 31.2093 0 30.2338 0V0Z" fill="black"/>
</svg>
