<svg width="32" height="33" viewBox="0 0 32 33" fill="none" xmlns="http://www.w3.org/2000/svg">
<path d="M23.9827 14.1293C23.9827 18.5377 20.4089 22.1115 16.0004 22.1115C11.592 22.1115 8.01822 18.5377 8.01822 14.1293C8.01822 12.8871 8.31022 11.716 8.816 10.668H0V29.3346C0 31.0457 1.4 32.4457 3.11111 32.4457H28.8889C30.6 32.4457 32 31.0457 32 29.3346V10.668H23.1844C23.6907 11.716 23.9827 12.8871 23.9827 14.1293Z" fill="#231F20"/>
<path d="M28.8889 0H3.11111C1.4 0 0 1.4 0 3.11111V9.33333H9.62889C11.0858 7.40045 13.3933 6.14578 16 6.14578C18.6067 6.14578 20.9142 7.40045 22.3711 9.33333H32V3.11111C32 1.4 30.6 0 28.8889 0ZM2.55822 7.87378H1.4V3.38711C1.4 2.60222 1.87822 1.92978 2.55867 1.644V7.87378H2.55822ZM4.456 7.87378H3.35867V1.49689H4.456V7.87378ZM6.35333 7.87378H5.256V1.49689H6.35333V7.87378ZM8.24933 3.38711V5.98356V7.87378H7.15333V1.49689H8.24933V3.38711ZM30.3782 5.98356C30.3782 7.028 29.532 7.87378 28.4889 7.87378H25.4182C24.3747 7.87378 23.5284 7.028 23.5284 5.98356V3.38711C23.5284 2.34267 24.3747 1.49689 25.4182 1.49689H28.4889C29.5324 1.49689 30.3782 2.34267 30.3782 3.38711V5.98356Z" fill="#231F20"/>
<path d="M16.0008 21.177C19.8835 21.177 23.0311 18.0281 23.0311 14.1463C23.0311 10.2641 19.8839 7.11523 16.0008 7.11523C12.1173 7.11523 8.96973 10.2641 8.96973 14.1463C8.96973 18.0277 12.1173 21.177 16.0008 21.177V21.177ZM16.0004 8.54457C19.0937 8.54457 21.6022 11.0526 21.6022 14.1463C21.6022 17.2397 19.0942 19.7481 16.0004 19.7481C12.9066 19.7481 10.3986 17.2401 10.3986 14.1463C10.3991 11.0521 12.9071 8.54457 16.0004 8.54457Z" fill="#231F20"/>
</svg>
