<svg width="32" height="32" viewBox="0 0 32 32" fill="none" xmlns="http://www.w3.org/2000/svg">
<path d="M31.9819 25.2542C31.9055 24.7823 31.6098 24.379 31.1668 24.1394L24.6136 20.2772L24.5597 20.247C24.295 20.1112 23.9887 20.0412 23.6742 20.0412C23.1252 20.0412 22.6008 20.2493 22.2369 20.6142L20.3028 22.5499C20.22 22.6285 19.9503 22.7424 19.8685 22.7465C19.8461 22.7447 17.618 22.5841 13.516 18.4805C9.42136 14.3856 9.24765 12.1499 9.24628 12.1499C9.24856 12.0356 9.36102 11.7667 9.44102 11.6835L11.0904 10.0341C11.6714 9.45152 11.8456 8.48575 11.5009 7.73764L7.85838 0.881636C7.5937 0.336558 7.07941 0 6.5089 0C6.10524 0 5.71575 0.167365 5.41129 0.471456L0.915279 4.95875C0.484192 5.38767 0.112991 6.13761 0.0320762 6.74122C-0.00723825 7.02977 -0.804955 13.9173 8.63507 23.3615C16.6493 31.3772 22.8984 32 24.6241 32C24.9953 32 25.2116 31.9735 25.2532 31.9675C25.8548 31.8871 26.6036 31.5167 27.0319 31.0873L31.5243 26.594C31.8909 26.2255 32.0582 25.7385 31.9819 25.2542V25.2542Z" fill="#231F20"/>
</svg>
