<svg width="160" height="64" viewBox="0 0 160 64" fill="none" xmlns="http://www.w3.org/2000/svg">
<path fill-rule="evenodd" clip-rule="evenodd" d="M47.913 16.5621C49.1446 17.0723 50.2635 17.8203 51.206 18.7632C52.1489 19.7056 52.8969 20.8246 53.4073 22.0562C53.9175 23.2878 54.18 24.6079 54.18 25.941C54.18 27.2741 53.9175 28.5942 53.4073 29.8258C52.8969 31.0574 52.1489 32.1764 51.206 33.1189L37.1264 47.1983C35.8938 48.4312 33.8951 48.4312 32.6626 47.1983L18.583 33.1189C16.6794 31.2151 15.6099 28.6332 15.6099 25.941C15.6099 23.2488 16.6794 20.6669 18.583 18.7632C20.4867 16.8595 23.0686 15.7901 25.7608 15.7901C28.453 15.7901 31.0349 16.8595 32.9386 18.7632L34.8945 20.7191L36.8504 18.7632C37.7929 17.8203 38.9118 17.0723 40.1434 16.5621C41.375 16.0517 42.695 15.7891 44.0284 15.7891C45.3614 15.7891 46.6814 16.0517 47.913 16.5621ZM29.5934 26.8265C28.1538 28.9854 27.0858 31.1575 27.0858 33.5132C27.0858 36.9836 29.0728 40.2463 31.9217 41.512L32.8958 40.1258C34.0718 38.7821 35.979 38.7815 37.1557 40.1258L37.9515 41.0349C40.8003 39.769 42.5486 36.8013 42.5486 33.5126C42.5486 29.4279 39.1943 26.7633 39.1943 26.7633C38.8575 26.4441 38.5771 26.5718 38.5759 27.0311C38.5759 27.0311 38.7872 31.0056 36.6977 31.0056C35.6334 31.0056 35.6144 29.9918 35.5869 28.5179C35.552 26.6462 35.5032 24.0327 33.282 21.8116C32.4069 21.0615 32.0554 20.7602 31.8936 20.8406C31.5153 21.0289 32.1787 23.312 29.5934 26.8265ZM38.8175 23.4645C38.0645 22.3028 36.604 21.6344 35.9597 21.7461C35.6809 21.7942 35.7639 21.8859 35.9787 22.1237C36.2609 22.4361 36.7711 23.0005 36.9884 24.0492C37.3717 25.8953 39.869 25.1427 38.8175 23.4645Z" fill="black"/>
<path d="M81.1074 27.2593C80.567 26.2687 79.824 25.5144 78.8787 24.9966C77.933 24.4787 76.8297 24.2198 75.5688 24.2198C74.173 24.2198 72.9348 24.535 71.854 25.1654C70.7731 25.7959 69.929 26.6964 69.3211 27.8672C68.7133 29.0379 68.4092 30.3888 68.4092 31.9199C68.4092 33.4959 68.7133 34.8693 69.3211 36.04C69.9515 37.2107 70.8184 38.1114 71.9214 38.7417C73.0247 39.372 74.3081 39.6874 75.7714 39.6874C77.5728 39.6874 79.0473 39.2144 80.1955 38.2691C81.3438 37.3006 82.098 35.9613 82.4583 34.2502H74.3531V30.6365H87.1187V34.7566C86.8037 36.4003 86.1282 37.92 85.0926 39.3158C84.0567 40.7117 82.7171 41.8374 81.0737 42.6929C79.4525 43.5261 77.629 43.9426 75.6025 43.9426C73.3288 43.9426 71.2686 43.4359 69.4223 42.4228C67.5987 41.3873 66.1577 39.9574 65.0996 38.1339C64.0641 36.31 63.5461 34.2389 63.5461 31.9199C63.5461 29.6008 64.0641 27.5295 65.0996 25.7058C66.1577 23.8596 67.5987 22.4299 69.4223 21.4168C71.2686 20.3811 73.3175 19.8633 75.5688 19.8633C78.2256 19.8633 80.5333 20.5162 82.492 21.822C84.4507 23.1054 85.8016 24.9178 86.5446 27.2593H81.1074Z" fill="black"/>
<path d="M106.32 33.98C106.32 34.6556 106.276 35.2634 106.186 35.8038H92.508C92.6204 37.1547 93.0934 38.2127 93.9263 38.9782C94.7593 39.7437 95.7839 40.1265 96.9996 40.1265C98.7557 40.1265 100.005 39.3722 100.748 37.8637H105.848C105.307 39.665 104.272 41.1508 102.741 42.3218C101.21 43.4701 99.3298 44.0439 97.101 44.0439C95.2997 44.0439 93.6788 43.6499 92.2377 42.8619C90.8194 42.0515 89.7048 40.9144 88.8944 39.4512C88.1064 37.9876 87.7124 36.2989 87.7124 34.3852C87.7124 32.449 88.1064 30.7492 88.8944 29.2858C89.6823 27.8223 90.7856 26.6966 92.204 25.9086C93.6223 25.1206 95.2547 24.7266 97.101 24.7266C98.8796 24.7266 100.467 25.1093 101.863 25.8748C103.281 26.6403 104.373 27.7323 105.139 29.1507C105.926 30.5466 106.32 32.1564 106.32 33.98ZM101.424 32.6291C101.401 31.4134 100.962 30.4453 100.107 29.7248C99.2511 28.9818 98.204 28.6103 96.9659 28.6103C95.7951 28.6103 94.8045 28.9705 93.9938 29.691C93.2058 30.389 92.7219 31.3685 92.5417 32.6291H101.424Z" fill="black"/>
<path d="M118.451 24.7617C120.68 24.7617 122.481 25.4709 123.855 26.8893C125.228 28.2852 125.915 30.244 125.915 32.7657V43.7415H121.187V33.4072C121.187 31.9215 120.815 30.7843 120.072 29.9964C119.329 29.1858 118.316 28.7805 117.033 28.7805C115.727 28.7805 114.691 29.1858 113.926 29.9964C113.183 30.7843 112.811 31.9215 112.811 33.4072V43.7415H108.083V25.0319H112.811V27.3621C113.442 26.5516 114.241 25.9212 115.209 25.4709C116.2 24.9981 117.281 24.7617 118.451 24.7617Z" fill="black"/>
<path d="M133.551 39.7556H144.156V43.7407H128.081V40.0934L138.617 24.153H128.081V20.168H144.156V23.8153L133.551 39.7556Z" fill="black"/>
</svg>
