<svg width="32" height="32" viewBox="0 0 32 32" fill="none" xmlns="http://www.w3.org/2000/svg">
<path d="M29.6298 0H2.36222C1.05822 0 0 1.03333 0 2.30578V29.6911C0 30.9653 1.05822 32 2.36222 32H29.6298C30.9347 32 32 30.9653 32 29.6911V2.30578C32 1.03333 30.9347 0 29.6298 0ZM9.49067 27.2684H4.74222V11.9978H9.49067V27.2684ZM7.11644 9.90978C5.59511 9.90978 4.36533 8.67689 4.36533 7.15689C4.36533 5.63911 5.59511 4.40622 7.11644 4.40622C8.63422 4.40622 9.86711 5.63911 9.86711 7.15689C9.86711 8.67689 8.63422 9.90978 7.11644 9.90978ZM27.2667 27.2684H22.5258V19.8427C22.5258 18.0711 22.4911 15.7933 20.0587 15.7933C17.5884 15.7933 17.212 17.7227 17.212 19.7142V27.2689H12.4676V11.9978H17.0209V14.0831H17.0858C17.7196 12.8831 19.268 11.6169 21.5773 11.6169C26.38 11.6169 27.2671 14.7787 27.2671 18.892V27.2684H27.2667Z" fill="white"/>
</svg>
