<svg width="135" height="64" viewBox="0 0 135 64" fill="none" xmlns="http://www.w3.org/2000/svg">
<path d="M41.4538 42.8049C41.5863 45.4653 39.0831 47.7518 35.8627 47.912C32.6424 48.0727 29.9244 46.0457 29.7919 43.3857C29.6594 40.7254 32.1626 38.4388 35.383 38.2784C38.6033 38.1181 41.3213 40.1446 41.4538 42.8049Z" fill="black"/>
<path d="M30.0051 37.4583C30.0768 38.8985 29.3404 40.1055 28.3603 40.1543C27.3802 40.2031 26.5275 39.0752 26.4557 37.635C26.3841 36.1949 27.1205 34.9879 28.1005 34.939C29.0806 34.8902 29.9333 36.0182 30.0051 37.4583Z" fill="black"/>
<path d="M34.4242 34.3333C34.4959 35.7735 33.7596 36.9805 32.7794 37.0293C31.7993 37.0781 30.9466 35.9502 30.8749 34.51C30.8032 33.0699 31.5396 31.8629 32.5197 31.814C33.4998 31.7652 34.3525 32.8931 34.4242 34.3333Z" fill="black"/>
<path d="M38.9884 34.1067C39.0602 35.5469 38.3238 36.7539 37.3437 36.8027C36.3635 36.8515 35.5108 35.7236 35.4391 34.2835C35.3674 32.8433 36.1038 31.6362 37.0839 31.5875C38.064 31.5386 38.9167 32.6666 38.9884 34.1067Z" fill="black"/>
<path d="M43.6965 36.7747C43.7682 38.2148 43.0318 39.4219 42.0517 39.4707C41.0716 39.5195 40.2189 38.3916 40.1472 36.9514C40.0755 35.5113 40.8119 34.3042 41.792 34.2554C42.7721 34.2066 43.6247 35.3345 43.6965 36.7747Z" fill="black"/>
<path d="M26.2405 30.502C24.7254 32.6927 21.3473 32.9818 18.6955 31.1478C16.0435 29.3137 15.122 26.051 16.6371 23.8603C18.1522 21.6696 21.5302 21.3805 24.1821 23.2145C26.834 25.0486 27.7556 28.3113 26.2405 30.502Z" fill="black"/>
<path d="M20.417 19.2908C19.5968 20.4767 18.2776 20.9857 17.4705 20.4275C16.6634 19.8693 16.674 18.4554 17.4942 17.2694C18.3144 16.0835 19.6336 15.5746 20.4407 16.1328C21.2478 16.691 21.2372 18.1049 20.417 19.2908Z" fill="black"/>
<path d="M25.8242 19.5018C25.004 20.6877 23.6848 21.1966 22.8778 20.6384C22.0706 20.0802 22.0813 18.6663 22.9014 17.4804C23.7217 16.2944 25.0408 15.7855 25.8479 16.3437C26.6551 16.9019 26.6445 18.3158 25.8242 19.5018Z" fill="black"/>
<path d="M29.5833 22.1033C28.7631 23.2893 27.4439 23.7982 26.6368 23.24C25.8297 22.6818 25.8403 21.2679 26.6605 20.0819C27.4807 18.896 28.7999 18.3871 29.607 18.9453C30.4141 19.5035 30.4035 20.9174 29.5833 22.1033Z" fill="black"/>
<path d="M31.6909 27.0877C30.8707 28.2736 29.5515 28.7825 28.7445 28.2244C27.9373 27.6662 27.9479 26.2523 28.7682 25.0663C29.5884 23.8804 30.9076 23.3715 31.7146 23.9296C32.5218 24.4879 32.5112 25.9017 31.6909 27.0877Z" fill="black"/>
<path d="M52.4804 41.5061C51.2098 40.8798 50.1719 40.0655 49.3668 39.0633C48.5612 38.0435 47.9619 36.9517 47.5681 35.7884C47.1921 34.6075 47.0042 33.4622 47.0042 32.3527V31.762C47.0042 30.5452 47.2011 29.3461 47.5949 28.1649C47.9888 26.9661 48.588 25.8833 49.3932 24.9169C50.2167 23.9506 51.2456 23.1811 52.4804 22.6086C53.7331 22.0179 55.2091 21.7227 56.9094 21.7227C58.6812 21.7227 60.2468 22.0538 61.6069 22.7159C62.967 23.378 64.0496 24.2996 64.8552 25.4808C65.6783 26.644 66.1616 28.0129 66.3044 29.5878H61.8754C61.7506 28.8003 61.4637 28.1294 61.0166 27.5745C60.569 27.0197 59.9876 26.5902 59.272 26.286C58.5738 25.9818 57.7861 25.8298 56.9094 25.8298C56.0326 25.8298 55.2543 25.9818 54.5741 26.286C53.8942 26.5902 53.3218 27.0197 52.8563 27.5745C52.7078 27.7585 52.5699 27.9543 52.4433 28.1619C52.4083 28.2191 52.3739 28.2773 52.3408 28.3363L52.2947 28.4196C52.2607 28.4827 52.2271 28.5468 52.1949 28.6117C52.1438 28.7141 52.0946 28.819 52.0485 28.9265C52.0234 28.9845 51.9997 29.0428 51.976 29.102C51.9568 29.1494 51.938 29.1975 51.9196 29.2461C51.8811 29.3489 51.8444 29.4539 51.8095 29.561C51.5763 30.3125 51.46 31.1536 51.46 32.0841C51.46 32.9969 51.5763 33.8378 51.8095 34.6075C51.8368 34.6897 51.8655 34.7707 51.895 34.8507L51.9411 34.9694C52.1801 35.5734 52.4938 36.1149 52.8828 36.5937C53.3661 37.1486 53.9569 37.578 54.6546 37.8822C55.3528 38.1687 56.149 38.3118 57.0436 38.3118C58.4038 38.3118 59.549 37.9808 60.48 37.3186C61.4283 36.6565 62.0007 35.7438 62.1977 34.5806H66.6002C66.4387 36.0122 65.9558 37.3276 65.1502 38.5266C64.3634 39.7076 63.2803 40.656 61.9023 41.3719C60.5422 42.0699 58.9225 42.4189 57.0436 42.4189C55.2722 42.4189 53.751 42.1145 52.4804 41.5061Z" fill="black"/>
<path d="M68.1248 41.9082V22.3125H72.4468V41.9082H68.1248Z" fill="black"/>
<path d="M76.31 40.7283C77.2225 41.8198 78.5289 42.3657 80.2292 42.3657H80.4172C81.5267 42.3657 82.693 42.3926 83.4444 41.9094C83.9622 41.5768 84.677 41.1081 85.1948 40.527V41.9094H88.6042V27.1992H84.3095V35.8428C84.3095 36.666 84.0679 37.3192 83.5845 37.8024C83.1016 38.2855 82.475 38.5272 81.7057 38.5272C80.9538 38.5272 80.3545 38.2945 79.907 37.8292C79.4599 37.364 79.2361 36.7377 79.2361 35.9501V27.1992H74.9409V35.7355C74.9409 37.9544 75.3974 39.6188 76.31 40.7283Z" fill="black"/>
<path fill-rule="evenodd" clip-rule="evenodd" d="M97.7589 42.4178C96.5062 42.4178 95.3962 42.203 94.43 41.7736C93.4816 41.344 92.6854 40.7714 92.0409 40.0555C91.4148 39.3219 90.9314 38.5077 90.5913 37.6127C90.2691 36.7002 90.1084 35.7695 90.1084 34.821V34.2843C90.1084 33.3 90.2691 32.3604 90.5913 31.4657C90.9314 30.5531 91.4148 29.7389 92.0409 29.023C92.6675 28.3071 93.4458 27.7435 94.3763 27.3318C95.3246 26.9023 96.3987 26.6875 97.5973 26.6875C99.1722 26.6875 100.497 27.0455 101.57 27.7614C102.662 28.4594 103.494 29.3809 104.067 30.5262C104.64 31.6536 104.926 32.8883 104.926 34.2305V35.6801H94.1816C94.2429 36.116 94.344 36.5188 94.4837 36.8881C94.7343 37.5324 95.1282 38.0334 95.6648 38.3912C96.2018 38.7491 96.8996 38.9281 97.7589 38.9281C98.5457 38.9281 99.1901 38.776 99.6914 38.4718C99.9264 38.3289 100.126 38.1703 100.291 37.9959C100.476 37.7988 100.616 37.5817 100.711 37.3444H104.657C104.443 38.3287 104.022 39.2054 103.395 39.9751C102.769 40.7445 101.982 41.344 101.034 41.7736C100.085 42.203 98.9932 42.4178 97.7589 42.4178ZM94.2357 33.1233C94.2281 33.1609 94.221 33.1989 94.2147 33.2373H100.847C100.785 32.8247 100.686 32.4491 100.55 32.1099C100.3 31.4836 99.9241 31.0094 99.4229 30.6873C98.9395 30.3473 98.3313 30.1772 97.5973 30.1772C97.4603 30.1772 97.3265 30.1829 97.1967 30.1943C97.0683 30.2057 96.9434 30.2224 96.8226 30.245C96.3987 30.3236 96.0219 30.4712 95.6921 30.6873C95.1725 31.0273 94.7786 31.5284 94.5105 32.1906C94.4823 32.2579 94.4559 32.3269 94.4304 32.3975C94.4045 32.4705 94.3803 32.5452 94.3575 32.6217C94.3105 32.7812 94.2697 32.9484 94.2357 33.1233Z" fill="black"/>
<path d="M107.101 41.077C108.282 41.9361 109.919 42.3655 112.013 42.3655C113.337 42.3655 114.492 42.1775 115.476 41.8017C116.46 41.4081 117.221 40.8532 117.757 40.1375C118.294 39.4037 118.563 38.5446 118.563 37.5604C118.563 36.2005 118.062 35.1179 117.06 34.3124C116.057 33.5071 114.653 33.0062 112.845 32.8093L111.691 32.7018C110.921 32.6124 110.367 32.4603 110.027 32.2455C109.889 32.1583 109.778 32.0549 109.697 31.9352C109.577 31.7601 109.517 31.5503 109.517 31.306C109.517 30.8766 109.714 30.5366 110.107 30.2859C110.501 30.0355 111.029 29.9103 111.691 29.9103C112.532 29.9103 113.167 30.0803 113.596 30.4201C114.026 30.7422 114.277 31.145 114.348 31.6281H118.16C118.107 30.0534 117.498 28.8543 116.335 28.0311C115.172 27.19 113.642 26.7695 111.745 26.7695C110.563 26.7695 109.508 26.9485 108.577 27.3065C107.664 27.6642 106.949 28.1922 106.43 28.8902C105.911 29.5881 105.651 30.4559 105.651 31.4939C105.651 32.7466 106.09 33.7757 106.966 34.5809C107.862 35.3862 109.194 35.8783 110.966 36.0573L112.121 36.1646C113.087 36.2719 113.758 36.4598 114.134 36.7284C114.509 36.9789 114.697 37.3189 114.697 37.7484C114.697 38.2315 114.447 38.6074 113.946 38.8757C113.463 39.1264 112.845 39.2516 112.094 39.2516C111.109 39.2516 110.367 39.0726 109.865 38.7147C109.382 38.339 109.105 37.9183 109.034 37.4531H105.221C105.293 39.0101 105.92 40.2179 107.101 41.077Z" fill="black"/>
</svg>
