<svg width="142" height="64" viewBox="0 0 142 64" fill="none" xmlns="http://www.w3.org/2000/svg">
<path d="M28.2851 12.564C29.3441 11.9526 30.6487 11.9526 31.7076 12.564L45.7287 20.6591L36.0336 26.336C34.5328 24.8294 32.4559 23.8969 30.1613 23.8969C27.775 23.8969 25.6242 24.9054 24.1119 26.5195L14.1831 20.7058L28.2851 12.564Z" fill="black"/>
<path d="M22.2222 29.7992L12.2915 23.9844V40.2389L22.1852 34.4457C21.9821 33.7273 21.8734 32.9693 21.8734 32.1859C21.8734 31.3562 21.9953 30.555 22.2222 29.7992Z" fill="black"/>
<path d="M24.0232 37.7578L14.3394 43.4281L28.2854 51.4798C29.3443 52.0911 30.6489 52.0911 31.7078 51.4798L45.5729 43.4747L36.1262 37.9433C34.619 39.5053 32.5037 40.477 30.1616 40.477C27.728 40.477 25.5394 39.428 24.0232 37.7578Z" fill="black"/>
<path d="M38.0647 34.6905L47.7009 40.3331C47.7013 40.3112 47.7016 40.2893 47.7016 40.2674V23.8906L38.0239 29.5573C38.3001 30.3833 38.4497 31.2674 38.4497 32.1863C38.4497 33.0591 38.3148 33.9004 38.0647 34.6905Z" fill="black"/>
<path fill-rule="evenodd" clip-rule="evenodd" d="M59.1719 41.5136C60.5608 42.3614 62.2295 42.7854 64.1776 42.7854C66.1257 42.7854 67.7941 42.3614 69.1833 41.5136C70.5814 40.6567 71.6499 39.4663 72.3895 37.942C73.1383 36.4179 73.5124 34.6499 73.5124 32.6388C73.5124 30.6275 73.1383 28.8597 72.3895 27.3355C71.6499 25.8113 70.5814 24.6252 69.1833 23.7774C67.7941 22.9206 66.1257 22.4922 64.1776 22.4922C62.2295 22.4922 60.5608 22.9206 59.1719 23.7774C57.7831 24.6252 56.7143 25.8113 55.9658 27.3355C55.2262 28.8597 54.8562 30.6275 54.8562 32.6388C54.8562 34.6499 55.2262 36.4179 55.9658 37.942C56.7143 39.4663 57.7831 40.6567 59.1719 41.5136ZM67.4382 38.8486C66.5723 39.4348 65.4853 39.7233 64.1776 39.7144C62.8699 39.6963 61.7785 39.3941 60.9037 38.8078C60.0378 38.2216 59.3886 37.4053 58.9556 36.3591C58.5227 35.3039 58.306 34.0638 58.306 32.6388C58.306 31.2137 58.5227 29.9691 58.9556 28.9048C59.3975 27.8406 60.0512 27.0153 60.917 26.429C61.7829 25.8428 62.8699 25.5542 64.1776 25.5632C65.4853 25.5813 66.5723 25.8834 67.4382 26.4696C68.313 27.0559 68.9667 27.8766 69.3996 28.9319C69.8418 29.9781 70.0625 31.2137 70.0625 32.6388C70.0625 34.0638 69.8418 35.3084 69.3996 36.3728C68.9667 37.4368 68.313 38.2623 67.4382 38.8486Z" fill="black"/>
<path d="M75.123 41.6941C75.123 42.0719 75.4294 42.3786 75.8075 42.3786H77.7125C78.0907 42.3786 78.397 42.0719 78.397 41.6941V34.9512C78.397 34.3919 78.4647 33.8735 78.5999 33.3954C78.7351 32.9084 78.9425 32.4755 79.2221 32.0967C79.511 31.7179 79.8806 31.4067 80.3317 31.1632C80.7824 30.8926 81.2876 30.7348 81.8468 30.6897C82.0566 30.673 82.2572 30.6681 82.4485 30.6748C82.9047 30.6908 83.3486 30.3551 83.3486 29.8988V28.3473C83.3486 28.0127 83.1066 27.7225 82.7726 27.7038C82.5224 27.6899 82.2678 27.693 82.009 27.7133C81.5491 27.7404 81.0983 27.8261 80.6565 27.9704C80.2235 28.1057 79.8265 28.2951 79.4658 28.5386C79.0418 28.8002 78.6766 29.1339 78.3699 29.5397C78.2365 29.7178 78.1146 29.905 78.0048 30.1012V28.452C78.0048 28.0739 77.6981 27.7675 77.3203 27.7675H75.8075C75.4294 27.7675 75.123 28.0739 75.123 28.452V41.6941Z" fill="black"/>
<path fill-rule="evenodd" clip-rule="evenodd" d="M91.8694 42.7858C90.4442 42.7858 89.2491 42.4477 88.284 41.771C88.0793 41.6276 87.8856 41.4733 87.7025 41.308V41.6954C87.7025 42.0732 87.3959 42.3799 87.018 42.3799H85.5053C85.1271 42.3799 84.8208 42.0732 84.8208 41.6954V23.5829C84.8208 23.2049 85.1271 22.8984 85.5053 22.8984H87.4236C87.8018 22.8984 88.1081 23.2049 88.1081 23.5829V28.4767C88.1529 28.4431 88.1977 28.41 88.2436 28.3776C89.1906 27.7011 90.3583 27.3629 91.7475 27.3629C93.1275 27.3629 94.3226 27.7011 95.3325 28.3776C96.3517 29.045 97.141 29.9604 97.7002 31.1239C98.2594 32.2784 98.539 33.5952 98.539 35.0743C98.539 36.5354 98.2639 37.8479 97.7135 39.0112C97.1636 40.1748 96.3877 41.0948 95.3866 41.771C94.3856 42.4477 93.213 42.7858 91.8694 42.7858ZM88.0677 32.5715C87.824 33.284 87.7025 34.1183 87.7025 35.0743C87.7025 36.0213 87.824 36.8557 88.0677 37.5772C88.3203 38.2986 88.7125 38.8623 89.2447 39.2682C89.7858 39.6652 90.4939 39.8634 91.3686 39.8634C92.2164 39.8634 92.9156 39.6515 93.4656 39.2278C94.0159 38.8038 94.4215 38.2312 94.6833 37.5094C94.9537 36.779 95.0892 35.9672 95.0892 35.0743C95.0892 34.1904 94.9537 33.3877 94.6833 32.6662C94.4126 31.9356 93.9933 31.3584 93.4249 30.9345C92.8567 30.5016 92.1353 30.2851 91.2605 30.2851C90.4306 30.2851 89.7543 30.4881 89.231 30.8939C88.708 31.2908 88.3203 31.8499 88.0677 32.5715Z" fill="black"/>
<path d="M100.709 41.6961C100.709 42.074 101.016 42.3806 101.394 42.3806H103.285C103.663 42.3806 103.97 42.074 103.97 41.6961V28.454C103.97 28.076 103.663 27.7695 103.285 27.7695H101.394C101.016 27.7695 100.709 28.076 100.709 28.454V41.6961Z" fill="black"/>
<path d="M115.504 41.8122C115.504 42.1418 115.269 42.4266 114.943 42.4741C114.171 42.5871 113.411 42.6326 112.663 42.6107C111.743 42.5925 110.918 42.4259 110.187 42.11C109.456 41.7855 108.902 41.2759 108.523 40.5812C108.189 39.9501 108.013 39.3053 107.995 38.6468C107.977 37.9883 107.968 37.2443 107.968 36.4143V30.3265H106.001C105.623 30.3265 105.317 30.0201 105.317 29.642V28.4541C105.317 28.076 105.623 27.7696 106.001 27.7696H107.968V24.3954C107.968 24.0174 108.275 23.7109 108.653 23.7109H110.53C110.909 23.7109 111.215 24.0174 111.215 24.3954V27.7696H114.819C115.197 27.7696 115.504 28.076 115.504 28.4541V29.642C115.504 30.0201 115.197 30.3265 114.819 30.3265H111.215V36.2251C111.215 36.8113 111.22 37.3254 111.229 37.7672C111.247 38.2094 111.341 38.5701 111.513 38.8497C111.837 39.3908 112.356 39.693 113.069 39.756C113.569 39.8005 114.118 39.7957 114.716 39.7423C115.132 39.705 115.504 40.0233 115.504 40.4415V41.8122Z" fill="black"/>
<path d="M119.313 41.7851C120.377 42.4525 121.662 42.7862 123.168 42.7862C124.801 42.7862 126.181 42.3891 127.308 41.5955C128.253 40.9226 128.961 40.0088 129.43 38.8544C129.58 38.4855 129.345 38.0851 128.956 37.9985L126.949 37.5494C126.607 37.4731 126.269 37.6706 126.115 37.9848C125.88 38.4612 125.579 38.8438 125.211 39.1334C124.715 39.53 124.034 39.7285 123.168 39.7285C121.942 39.7285 121.017 39.3 120.395 38.4434C119.773 37.5864 119.461 36.4635 119.461 35.0747C119.461 34.1818 119.592 33.3836 119.854 32.6801C120.115 31.9766 120.521 31.4264 121.071 31.0296C121.622 30.6237 122.32 30.4208 123.168 30.4208C123.917 30.4208 124.584 30.6418 125.171 31.0837C125.596 31.3981 125.934 31.8053 126.184 32.3052C126.347 32.6322 126.706 32.8349 127.059 32.7393L129.032 32.2051C129.39 32.1081 129.61 31.7413 129.486 31.391C129.085 30.2477 128.395 29.3245 127.416 28.6214C126.271 27.7827 124.868 27.3633 123.209 27.3633C121.73 27.3633 120.453 27.697 119.38 28.3644C118.307 29.0228 117.477 29.9338 116.891 31.0972C116.314 32.2517 116.021 33.5775 116.011 35.0747C116.021 36.545 116.305 37.8616 116.864 39.0252C117.432 40.1885 118.248 41.1085 119.313 41.7851Z" fill="black"/>
<path d="M100.632 23.8323L101.55 22.914C101.951 22.513 102.601 22.513 103.002 22.914L103.92 23.8323C104.321 24.2333 104.321 24.8834 103.92 25.2843L103.002 26.2026C102.601 26.6036 101.951 26.6036 101.55 26.2026L100.632 25.2843C100.231 24.8834 100.231 24.2333 100.632 23.8323Z" fill="black"/>
</svg>
