<svg width="188" height="64" viewBox="0 0 188 64" fill="none" xmlns="http://www.w3.org/2000/svg">
<path d="M35.6511 20.2141H24.9287V16.8633H35.6511C39.3523 16.8633 42.3526 19.8637 42.3526 23.5649V34.2875H39.0018V23.5649C39.0018 21.7143 37.5017 20.2141 35.6511 20.2141Z" fill="black"/>
<path d="M23.5883 38.9797H34.3106V42.3305H23.5883C19.8871 42.3305 16.8867 39.3298 16.8867 35.6289V24.9062H20.2375V35.6289C20.2375 37.4792 21.7377 38.9797 23.5883 38.9797Z" fill="black"/>
<path fill-rule="evenodd" clip-rule="evenodd" d="M36.3209 29.5961C36.3209 33.2973 33.3207 36.2978 29.6195 36.2978C25.9184 36.2978 22.918 33.2973 22.918 29.5961C22.918 25.8949 25.9184 22.8945 29.6195 22.8945C33.3207 22.8945 36.3209 25.8949 36.3209 29.5961ZM32.9703 29.5961C32.9703 31.4467 31.4701 32.9469 29.6195 32.9469C27.7689 32.9469 26.2688 31.4467 26.2688 29.5961C26.2688 27.7455 27.7689 26.2453 29.6195 26.2453C31.4701 26.2453 32.9703 27.7455 32.9703 29.5961Z" fill="black"/>
<path d="M56.6519 40.1966C55.383 40.1966 54.2407 39.9791 53.2251 39.5438C52.2098 39.0905 51.412 38.4558 50.832 37.6399C50.2516 36.824 49.9614 35.872 49.9614 34.7844H53.2797C53.3521 35.6003 53.6694 36.2711 54.2317 36.7969C54.8117 37.3226 55.6186 37.5856 56.6519 37.5856C57.7218 37.5856 58.5559 37.3316 59.1543 36.824C59.7524 36.2983 60.0516 35.6274 60.0516 34.8115C60.0516 34.1769 59.8613 33.6602 59.4807 33.2613C59.1178 32.8624 58.6557 32.5541 58.0934 32.3366C57.5496 32.119 56.788 31.8833 55.8089 31.6294C54.5761 31.3031 53.5699 30.9767 52.7902 30.6503C52.0285 30.3058 51.3758 29.78 50.832 29.0729C50.2878 28.3658 50.016 27.4229 50.016 26.2444C50.016 25.1565 50.2878 24.2046 50.832 23.3887C51.3758 22.5728 52.1374 21.9473 53.1165 21.5121C54.0956 21.0769 55.2289 20.8594 56.5162 20.8594C58.3474 20.8594 59.8432 21.3217 61.0036 22.2464C62.1821 23.153 62.8348 24.4041 62.9618 25.9996H59.535C59.4807 25.3106 59.1543 24.7214 58.5559 24.2318C57.9574 23.7423 57.169 23.4975 56.1899 23.4975C55.3012 23.4975 54.5761 23.7241 54.0139 24.1774C53.4519 24.6307 53.1708 25.2835 53.1708 26.1356C53.1708 26.7158 53.343 27.1963 53.6875 27.5771C54.0501 27.9397 54.5034 28.2298 55.0476 28.4474C55.5914 28.6649 56.3346 28.9007 57.2775 29.1545C58.5287 29.499 59.544 29.8435 60.3237 30.188C61.1216 30.5325 61.7924 31.0673 62.3362 31.7926C62.8985 32.4997 63.1793 33.4516 63.1793 34.6483C63.1793 35.6093 62.9166 36.5157 62.3908 37.3682C61.8828 38.2203 61.1306 38.9092 60.1334 39.4349C59.1543 39.9426 57.9939 40.1966 56.6519 40.1966Z" fill="black"/>
<path d="M73.0387 24.7734C74.2175 24.7734 75.269 25.0182 76.1938 25.5077C77.1364 25.9973 77.8709 26.7226 78.3966 27.6835C78.9224 28.6445 79.1854 29.8049 79.1854 31.1647V40.0039H76.1121V31.6271C76.1121 30.2854 75.7767 29.2609 75.1058 28.5538C74.435 27.8286 73.5192 27.4659 72.3589 27.4659C71.1985 27.4659 70.2737 27.8286 69.5848 28.5538C68.9139 29.2609 68.5785 30.2854 68.5785 31.6271V40.0039H65.478V25.0182H68.5785V26.7316C69.0862 26.1152 69.7298 25.6347 70.5096 25.2902C71.3074 24.9457 72.1504 24.7734 73.0387 24.7734Z" fill="black"/>
<path d="M80.7471 32.443C80.7471 30.9381 81.0553 29.6054 81.6719 28.445C82.3065 27.2846 83.1586 26.3871 84.2282 25.7525C85.3162 25.0998 86.5128 24.7734 87.8182 24.7734C88.997 24.7734 90.0214 25.0091 90.8916 25.4806C91.7802 25.9338 92.4872 26.505 93.013 27.194V25.0182H96.1406V40.0039H93.013V37.7736C92.4872 38.4806 91.7708 39.07 90.8644 39.5415C89.9577 40.0129 88.9243 40.2485 87.764 40.2485C86.4766 40.2485 85.2981 39.9221 84.2282 39.2694C83.1586 38.5986 82.3065 37.6738 81.6719 36.4953C81.0553 35.2987 80.7471 33.948 80.7471 32.443ZM93.013 32.4974C93.013 31.4639 92.7955 30.5664 92.3602 29.8049C91.9434 29.0434 91.3902 28.4632 90.7012 28.0643C90.0123 27.6654 89.2688 27.4659 88.471 27.4659C87.6731 27.4659 86.9299 27.6654 86.241 28.0643C85.5518 28.445 84.9898 29.0162 84.5546 29.7777C84.1377 30.5211 83.9293 31.4095 83.9293 32.443C83.9293 33.4765 84.1377 34.383 84.5546 35.1627C84.9898 35.9424 85.5518 36.5409 86.241 36.9577C86.948 37.3568 87.6916 37.5561 88.471 37.5561C89.2688 37.5561 90.0123 37.3568 90.7012 36.9577C91.3902 36.559 91.9434 35.9786 92.3602 35.217C92.7955 34.4376 93.013 33.5308 93.013 32.4974Z" fill="black"/>
<path d="M101.954 27.2212C102.479 26.5322 103.196 25.952 104.102 25.4806C105.009 25.0091 106.033 24.7734 107.175 24.7734C108.481 24.7734 109.668 25.0998 110.738 25.7525C111.826 26.3871 112.678 27.2846 113.295 28.445C113.911 29.6054 114.219 30.9381 114.219 32.443C114.219 33.948 113.911 35.2987 113.295 36.4953C112.678 37.6738 111.826 38.5986 110.738 39.2694C109.668 39.9221 108.481 40.2485 107.175 40.2485C106.033 40.2485 105.018 40.022 104.13 39.5686C103.241 39.0972 102.516 38.5172 101.954 37.8279V47.1293H98.853V25.0182H101.954V27.2212ZM111.065 32.443C111.065 31.4095 110.847 30.5211 110.412 29.7777C109.995 29.0162 109.433 28.445 108.726 28.0643C108.037 27.6654 107.293 27.4659 106.495 27.4659C105.716 27.4659 104.973 27.6654 104.265 28.0643C103.576 28.4632 103.014 29.0434 102.579 29.8049C102.162 30.5664 101.954 31.4639 101.954 32.4974C101.954 33.5308 102.162 34.4376 102.579 35.217C103.014 35.9786 103.576 36.559 104.265 36.9577C104.973 37.3568 105.716 37.5561 106.495 37.5561C107.293 37.5561 108.037 37.3568 108.726 36.9577C109.433 36.5409 109.995 35.9424 110.412 35.1627C110.847 34.383 111.065 33.4765 111.065 32.443Z" fill="black"/>
<path d="M122.153 40.1966C120.884 40.1966 119.742 39.9791 118.727 39.5438C117.711 39.0905 116.913 38.4558 116.333 37.6399C115.753 36.824 115.463 35.872 115.463 34.7844H118.781C118.854 35.6003 119.171 36.2711 119.733 36.7969C120.313 37.3226 121.12 37.5856 122.153 37.5856C123.223 37.5856 124.057 37.3316 124.656 36.824C125.254 36.2983 125.553 35.6274 125.553 34.8115C125.553 34.1769 125.363 33.6602 124.982 33.2613C124.619 32.8624 124.157 32.5541 123.595 32.3366C123.051 32.119 122.289 31.8833 121.31 31.6294C120.078 31.3031 119.071 30.9767 118.292 30.6503C117.53 30.3058 116.877 29.78 116.333 29.0729C115.789 28.3658 115.518 27.4229 115.518 26.2444C115.518 25.1565 115.789 24.2046 116.333 23.3887C116.877 22.5728 117.639 21.9473 118.618 21.5121C119.597 21.0769 120.73 20.8594 122.017 20.8594C123.849 20.8594 125.345 21.3217 126.505 22.2464C127.684 23.153 128.336 24.4041 128.463 25.9996H125.036C124.982 25.3106 124.656 24.7214 124.057 24.2318C123.459 23.7423 122.67 23.4975 121.691 23.4975C120.803 23.4975 120.078 23.7241 119.515 24.1774C118.953 24.6307 118.672 25.2835 118.672 26.1356C118.672 26.7158 118.845 27.1963 119.189 27.5771C119.552 27.9397 120.005 28.2298 120.549 28.4474C121.093 28.6649 121.836 28.9007 122.779 29.1545C124.03 29.499 125.045 29.8435 125.825 30.188C126.623 30.5325 127.294 31.0673 127.838 31.7926C128.4 32.4997 128.681 33.4516 128.681 34.6483C128.681 35.6093 128.418 36.5157 127.892 37.3682C127.384 38.2203 126.632 38.9092 125.635 39.4349C124.656 39.9426 123.495 40.1966 122.153 40.1966Z" fill="black"/>
<path d="M138.731 24.7744C139.873 24.7744 140.888 25.0191 141.777 25.5087C142.683 25.9982 143.39 26.7235 143.898 27.6845C144.424 28.6454 144.687 29.8058 144.687 31.1657V40.0049H141.614V31.6281C141.614 30.2863 141.278 29.2619 140.607 28.5548C139.936 27.8295 139.021 27.4669 137.86 27.4669C136.7 27.4669 135.775 27.8295 135.086 28.5548C134.415 29.2619 134.08 30.2863 134.08 31.6281V40.0049H130.979V19.8789H134.08V26.7598C134.606 26.1252 135.267 25.6356 136.065 25.2911C136.881 24.9466 137.77 24.7744 138.731 24.7744Z" fill="black"/>
<path d="M153.782 40.2485C152.367 40.2485 151.089 39.9312 149.947 39.2965C148.805 38.6438 147.907 37.7374 147.254 36.577C146.602 35.3986 146.275 34.0385 146.275 32.4974C146.275 30.9744 146.611 29.6236 147.282 28.445C147.952 27.2665 148.868 26.3599 150.029 25.7253C151.189 25.0907 152.485 24.7734 153.918 24.7734C155.35 24.7734 156.647 25.0907 157.807 25.7253C158.967 26.3599 159.883 27.2665 160.554 28.445C161.225 29.6236 161.56 30.9744 161.56 32.4974C161.56 34.0204 161.216 35.3711 160.527 36.5499C159.838 37.7284 158.895 38.6438 157.698 39.2965C156.52 39.9312 155.214 40.2485 153.782 40.2485ZM153.782 37.5561C154.58 37.5561 155.323 37.3658 156.012 36.9848C156.719 36.6042 157.29 36.0329 157.725 35.2716C158.161 34.5099 158.378 33.5851 158.378 32.4974C158.378 31.4095 158.17 30.4939 157.753 29.7505C157.336 28.989 156.782 28.4178 156.094 28.0371C155.405 27.6563 154.661 27.4659 153.864 27.4659C153.066 27.4659 152.322 27.6563 151.633 28.0371C150.962 28.4178 150.428 28.989 150.029 29.7505C149.63 30.4939 149.43 31.4095 149.43 32.4974C149.43 34.1112 149.838 35.3621 150.654 36.2507C151.488 37.1209 152.531 37.5561 153.782 37.5561Z" fill="black"/>
<path d="M166.882 27.5483V35.8433C166.882 36.4056 167.009 36.8134 167.263 37.0674C167.535 37.3029 167.989 37.4209 168.623 37.4209H170.527V40.0047H168.079C166.683 40.0047 165.614 39.6783 164.87 39.0256C164.127 38.3728 163.755 37.312 163.755 35.8433V27.5483H161.987V25.019H163.755V21.293H166.882V25.019H170.527V27.5483H166.882Z" fill="black"/>
</svg>
