<svg width="161" height="28" viewBox="0 0 161 28" fill="none" xmlns="http://www.w3.org/2000/svg">
<path d="M31.7437 0.832995L29.3897 6.29006C27.321 11.117 25.6922 14.9809 24.5033 17.8819C23.3144 20.7828 22.2206 23.7313 21.2219 26.7273H10.5575C9.58256 23.7788 8.50066 20.866 7.31176 17.9889C6.14663 15.0879 4.57728 11.3786 2.6037 6.86074C2.27081 6.09984 1.40291 4.09059 0 0.832995H9.91546C10.6288 3.13947 11.6869 6.09984 13.0898 9.7141C14.3263 12.9004 15.325 15.6586 16.0859 17.9889C16.5852 16.3482 17.1797 14.6005 17.8692 12.7458C18.5826 10.8673 19.0106 9.72599 19.1532 9.32177C20.5324 5.68372 21.5429 2.85413 22.1849 0.832995H31.7437Z" fill="black"/>
<path d="M42.0629 20.2002C51.0986 20.1527 57.6495 20.0219 61.7155 19.8079C61.5491 20.7828 61.4421 21.7934 61.3945 22.8396C61.3707 23.8621 61.3588 25.158 61.3588 26.7273H33.6455C33.8357 22.1144 33.9308 17.7987 33.9308 13.7802C33.9308 9.76166 33.8357 5.44594 33.6455 0.832995H61.3588V7.28874H42.0629V10.7128C43.2043 10.7366 44.8925 10.7485 47.1277 10.7485C50.9084 10.7485 54.8199 10.6771 58.8622 10.5344V16.6692C54.8199 16.5265 50.9084 16.4552 47.1277 16.4552C44.8925 16.4552 43.2043 16.4671 42.0629 16.4909V20.2002Z" fill="black"/>
<path d="M94.5003 0.868661C94.3338 4.88715 94.2506 9.19099 94.2506 13.7802C94.2506 18.3931 94.3338 22.7088 94.5003 26.7273H81.7315L73.1 7.25307L73.742 26.7273H64.5756C64.7658 22.1144 64.8609 17.7987 64.8609 13.7802C64.8609 9.78544 64.7658 5.48161 64.5756 0.868661H77.7011L86.3682 20.8779L85.7618 0.868661H94.5003Z" fill="black"/>
<path d="M113.224 27.084C107.778 27.084 103.772 25.907 101.204 23.5529C98.6357 21.1751 97.3517 17.8462 97.3517 13.5662C97.3517 9.33365 98.6238 6.0285 101.168 3.6507C103.736 1.27289 107.755 0.0839844 113.224 0.0839844C118.716 0.0839844 122.735 1.27289 125.279 3.6507C127.847 6.0285 129.131 9.33365 129.131 13.5662C129.131 17.87 127.859 21.1989 125.315 23.5529C122.77 25.907 118.74 27.084 113.224 27.084ZM113.224 19.8079C115.863 19.8079 117.765 19.3086 118.93 18.3099C120.095 17.2874 120.678 15.7062 120.678 13.5662C120.678 11.4737 120.095 9.91622 118.93 8.89376C117.765 7.8713 115.863 7.36008 113.224 7.36008C110.608 7.36008 108.718 7.8713 107.552 8.89376C106.387 9.91622 105.805 11.4737 105.805 13.5662C105.805 15.6824 106.387 17.2518 107.552 18.2742C108.718 19.2967 110.608 19.8079 113.224 19.8079Z" fill="black"/>
<path d="M140.391 20.2002C149.427 20.1527 155.978 20.0219 160.044 19.8079C159.877 20.7828 159.77 21.7934 159.723 22.8396C159.699 23.8621 159.687 25.158 159.687 26.7273H131.974C132.164 22.1144 132.259 17.7987 132.259 13.7802C132.259 9.76166 132.164 5.44594 131.974 0.832995H159.687V7.28874H140.391V10.7128C141.533 10.7366 143.221 10.7485 145.456 10.7485C149.237 10.7485 153.148 10.6771 157.191 10.5344V16.6692C153.148 16.5265 149.237 16.4552 145.456 16.4552C143.221 16.4552 141.533 16.4671 140.391 16.4909V20.2002Z" fill="black"/>
</svg>
