<svg width="161" height="27" viewBox="0 0 161 27" fill="none" xmlns="http://www.w3.org/2000/svg">
<path d="M31.7437 0.749011L29.3897 6.20608C27.321 11.033 25.6922 14.897 24.5033 17.7979C23.3144 20.6988 22.2206 23.6473 21.2219 26.6433H10.5575C9.58256 23.6948 8.50066 20.782 7.31176 17.9049C6.14663 15.004 4.57728 11.2946 2.6037 6.77675C2.27081 6.01585 1.40291 4.00661 0 0.749011H9.91546C10.6288 3.05548 11.6869 6.01585 13.0898 9.63012C14.3263 12.8164 15.325 15.5746 16.0859 17.9049C16.5852 16.2642 17.1797 14.5165 17.8692 12.6618C18.5826 10.7834 19.0106 9.64201 19.1532 9.23778C20.5324 5.59974 21.5429 2.77015 22.1849 0.749011H31.7437Z" fill="white"/>
<path d="M42.0629 20.1162C51.0986 20.0687 57.6495 19.9379 61.7155 19.7239C61.5491 20.6988 61.4421 21.7094 61.3945 22.7556C61.3707 23.7781 61.3588 25.074 61.3588 26.6433H33.6455C33.8357 22.0304 33.9308 17.7147 33.9308 13.6962C33.9308 9.67768 33.8357 5.36196 33.6455 0.749011H61.3588V7.20476H42.0629V10.6288C43.2043 10.6526 44.8925 10.6645 47.1277 10.6645C50.9084 10.6645 54.8199 10.5931 58.8622 10.4505V16.5852C54.8199 16.4425 50.9084 16.3712 47.1277 16.3712C44.8925 16.3712 43.2043 16.3831 42.0629 16.4069V20.1162Z" fill="white"/>
<path d="M94.5003 0.784677C94.3338 4.80317 94.2506 9.107 94.2506 13.6962C94.2506 18.3091 94.3338 22.6248 94.5003 26.6433H81.7315L73.1 7.16909L73.742 26.6433H64.5756C64.7658 22.0304 64.8609 17.7147 64.8609 13.6962C64.8609 9.70146 64.7658 5.39762 64.5756 0.784677H77.7011L86.3682 20.7939L85.7618 0.784677H94.5003Z" fill="white"/>
<path d="M113.224 27C107.778 27 103.772 25.823 101.204 23.469C98.6357 21.0911 97.3517 17.7622 97.3517 13.4822C97.3517 9.24967 98.6238 5.94452 101.168 3.56671C103.736 1.1889 107.755 0 113.224 0C118.716 0 122.735 1.1889 125.279 3.56671C127.847 5.94452 129.131 9.24967 129.131 13.4822C129.131 17.786 127.859 21.1149 125.315 23.469C122.77 25.823 118.74 27 113.224 27ZM113.224 19.7239C115.863 19.7239 117.765 19.2246 118.93 18.2259C120.095 17.2034 120.678 15.6222 120.678 13.4822C120.678 11.3897 120.095 9.83223 118.93 8.80978C117.765 7.78732 115.863 7.27609 113.224 7.27609C110.608 7.27609 108.718 7.78732 107.552 8.80978C106.387 9.83223 105.805 11.3897 105.805 13.4822C105.805 15.5984 106.387 17.1678 107.552 18.1902C108.718 19.2127 110.608 19.7239 113.224 19.7239Z" fill="white"/>
<path d="M140.391 20.1162C149.427 20.0687 155.978 19.9379 160.044 19.7239C159.877 20.6988 159.77 21.7094 159.723 22.7556C159.699 23.7781 159.687 25.074 159.687 26.6433H131.974C132.164 22.0304 132.259 17.7147 132.259 13.6962C132.259 9.67768 132.164 5.36196 131.974 0.749011H159.687V7.20476H140.391V10.6288C141.533 10.6526 143.221 10.6645 145.456 10.6645C149.237 10.6645 153.148 10.5931 157.191 10.4505V16.5852C153.148 16.4425 149.237 16.3712 145.456 16.3712C143.221 16.3712 141.533 16.3831 140.391 16.4069V20.1162Z" fill="white"/>
</svg>
