<svg width="32" height="32" viewBox="0 0 32 32" fill="none" xmlns="http://www.w3.org/2000/svg">
<path d="M25.3333 15.6667V16.3333C25.3333 16.7015 25.0349 17 24.6667 17H17V24.6667C17 25.0348 16.7015 25.3333 16.3333 25.3333H15.6667C15.2985 25.3333 15 25.0348 15 24.6667V17H7.33334C6.96515 17 6.66667 16.7015 6.66667 16.3333V15.6667C6.66667 15.2985 6.96515 15 7.33334 15H15V7.33332C15 6.96513 15.2985 6.66666 15.6667 6.66666H16.3333C16.7015 6.66666 17 6.96513 17 7.33332V15H24.6667C25.0349 15 25.3333 15.2985 25.3333 15.6667Z" fill="black"/>
</svg>
